# xmcd CD database file
#
# Track frame offsets:
#	150
#	48420
#	85423
#	109280
#	134871
#	161235
#
# Disc length: 2800 seconds
#
# Revision: 0
# Processed by: cddbd v1.5.2PL0 Copyright (c) Steve Scherf et al.
# Submitted via: CDex 1.51
#
DISCID=580aee06
DTITLE=Jeremy Steig - Wayfaring Stranger
DYEAR=1900
DGENRE=Jazz
TTITLE0=In The Beginning
TTITLE1=Mint Tea
TTITLE2=Wayfaring Stranger
TTITLE3=Waves
TTITLE4=All is One
TTITLE5=Space
EXTD=
EXTT0=
EXTT1=
EXTT2=
EXTT3=
EXTT4=
EXTT5=
PLAYORDER=
